<svg xmlns="http://www.w3.org/2000/svg" viewBox="0 0 234.72 322.87">
  <title>path</title>
  <g id="track">
    <path d="M66.55,9.08S21.77,41,34.65,84.54s45.4,44.17,31.9,92.64S8.88,247.73,23,277.79s40.49,53.37,40.49,53.37" transform="translate(-19.75 -8.67)" fill="none" stroke="gray" stroke-miterlimit="10"/>
  </g>
  <g id="timeline">
    <path d="M66.55,9.08S21.77,41,34.65,84.54s45.4,44.17,31.9,92.64S8.88,247.73,23,277.79s40.49,53.37,40.49,53.37" transform="translate(-19.75 -8.67)" fill="none" stroke="#000" stroke-miterlimit="10"/>
    <g id="txt_1">
      <path d="M52.07,58.86v-.65l.83-.8c2-1.9,2.89-2.9,2.9-4.08a1.39,1.39,0,0,0-1.55-1.52,2.66,2.66,0,0,0-1.66.66l-.34-.74a3.42,3.42,0,0,1,2.21-.79,2.19,2.19,0,0,1,2.39,2.27c0,1.44-1,2.6-2.69,4.19l-.62.58v0h3.5v.88Z" transform="translate(-19.75 -8.67)"/>
      <path d="M63.41,54.88c0,2.65-1,4.11-2.71,4.11-1.52,0-2.55-1.43-2.58-4s1.13-4.05,2.71-4.05S63.41,52.4,63.41,54.88ZM59.18,55c0,2,.62,3.18,1.58,3.18s1.6-1.26,1.6-3.25-.49-3.18-1.58-3.18C59.85,51.75,59.18,52.88,59.18,55Z" transform="translate(-19.75 -8.67)"/>
      <path d="M69.57,54.88c0,2.65-1,4.11-2.71,4.11-1.52,0-2.55-1.43-2.58-4S65.4,50.93,67,50.93,69.57,52.4,69.57,54.88ZM65.33,55c0,2,.62,3.18,1.58,3.18s1.6-1.26,1.6-3.25-.49-3.18-1.58-3.18C66,51.75,65.33,52.88,65.33,55Z" transform="translate(-19.75 -8.67)"/>
      <path d="M75.6,51.07v.7l-3.39,7.1H71.12L74.5,52v0H70.68v-.88Z" transform="translate(-19.75 -8.67)"/>
      <path d="M82,55.23V56h-3v-.78Z" transform="translate(-19.75 -8.67)"/>
      <path d="M84.53,51.39v1.67H86v.8H84.53V57c0,.72.2,1.13.79,1.13a2.36,2.36,0,0,0,.61-.07l0,.79A2.58,2.58,0,0,1,85,59a1.46,1.46,0,0,1-1.14-.44A2.15,2.15,0,0,1,83.5,57V53.86h-.9v-.8h.9V51.67Z" transform="translate(-19.75 -8.67)"/>
      <path d="M87.23,50.35h1.06V54h0a2,2,0,0,1,.76-.74,2.17,2.17,0,0,1,1.08-.3c.78,0,2,.48,2,2.48v3.45H91.12V55.53c0-.94-.35-1.73-1.34-1.73a1.52,1.52,0,0,0-1.42,1.06,1.28,1.28,0,0,0-.07.5v3.5H87.23Z" transform="translate(-19.75 -8.67)"/>
      <path d="M94.48,56.15a1.86,1.86,0,0,0,2,2,3.81,3.81,0,0,0,1.61-.3l.18.76a4.7,4.7,0,0,1-1.93.36,2.7,2.7,0,0,1-2.85-2.93c0-1.75,1-3.13,2.72-3.13a2.46,2.46,0,0,1,2.4,2.73,4,4,0,0,1,0,.49Zm3.09-.76a1.5,1.5,0,0,0-1.46-1.71,1.75,1.75,0,0,0-1.62,1.71Z" transform="translate(-19.75 -8.67)"/>
      <path d="M102.56,58.86v-5h-.82v-.8h.82v-.31a2.33,2.33,0,0,1,2.53-2.53,2.91,2.91,0,0,1,1.48.38l-.3.8a2.22,2.22,0,0,0-1.22-.34c-1.12,0-1.44.78-1.44,1.7v.29H107v5.8h-1v-5H103.6v5Z" transform="translate(-19.75 -8.67)"/>
      <path d="M108.72,54.87c0-.68,0-1.27,0-1.81h.92l0,1.14h0a1.74,1.74,0,0,1,1.61-1.27,1.14,1.14,0,0,1,.3,0v1a1.59,1.59,0,0,0-.36,0,1.48,1.48,0,0,0-1.42,1.36,3,3,0,0,0,0,.49v3.09h-1Z" transform="translate(-19.75 -8.67)"/>
      <path d="M112.5,57.78a2.77,2.77,0,0,0,1.39.42c.77,0,1.13-.38,1.13-.86s-.3-.78-1.08-1.07c-1-.37-1.54-.95-1.54-1.64a1.79,1.79,0,0,1,2-1.7,2.9,2.9,0,0,1,1.43.36l-.26.77a2.26,2.26,0,0,0-1.19-.34c-.62,0-1,.36-1,.79s.35.7,1.1,1c1,.38,1.52.89,1.52,1.75,0,1-.79,1.74-2.17,1.74a3.31,3.31,0,0,1-1.63-.4Z" transform="translate(-19.75 -8.67)"/>
      <path d="M118.67,51.39v1.67h1.51v.8h-1.51V57c0,.72.2,1.13.79,1.13a2.36,2.36,0,0,0,.61-.07l0,.79a2.58,2.58,0,0,1-.94.14,1.46,1.46,0,0,1-1.14-.44,2.15,2.15,0,0,1-.41-1.51V53.86h-.9v-.8h.9V51.67Z" transform="translate(-19.75 -8.67)"/>
      <path d="M125.09,51.43a.65.65,0,0,1-1.31,0,.64.64,0,0,1,.66-.66A.63.63,0,0,1,125.09,51.43Zm-1.18,7.44v-5.8H125v5.8Z" transform="translate(-19.75 -8.67)"/>
      <path d="M126.76,50.87a12.09,12.09,0,0,1,2-.16,3.32,3.32,0,0,1,2.27.67,2.17,2.17,0,0,1,.71,1.69,2.38,2.38,0,0,1-.62,1.73,3.35,3.35,0,0,1-2.47.89,3.58,3.58,0,0,1-.84-.07v3.24h-1Zm1,3.9a3.49,3.49,0,0,0,.86.08c1.26,0,2-.61,2-1.73s-.76-1.58-1.91-1.58a4.38,4.38,0,0,0-1,.08Z" transform="translate(-19.75 -8.67)"/>
      <path d="M133,50.35h1.06V54h0a2,2,0,0,1,.76-.74,2.17,2.17,0,0,1,1.08-.3c.78,0,2,.48,2,2.48v3.45h-1.06V55.53c0-.94-.35-1.73-1.34-1.73a1.52,1.52,0,0,0-1.42,1.06,1.28,1.28,0,0,0-.07.5v3.5H133Z" transform="translate(-19.75 -8.67)"/>
      <path d="M145,55.91A2.84,2.84,0,0,1,142.07,59a2.76,2.76,0,0,1-2.78-3,2.83,2.83,0,0,1,2.88-3.08A2.75,2.75,0,0,1,145,55.91Zm-4.61.06c0,1.27.73,2.23,1.76,2.23s1.76-.95,1.76-2.25c0-1-.49-2.23-1.74-2.23S140.36,54.87,140.36,56Z" transform="translate(-19.75 -8.67)"/>
      <path d="M146.3,54.63c0-.6,0-1.09,0-1.57h.94l.06,1h0a2.13,2.13,0,0,1,1.92-1.09c.8,0,2.05.48,2.05,2.47v3.47h-1.06V55.52c0-.94-.35-1.71-1.34-1.71a1.5,1.5,0,0,0-1.42,1.08,1.52,1.52,0,0,0-.07.49v3.49H146.3Z" transform="translate(-19.75 -8.67)"/>
      <path d="M153.54,56.15a1.86,1.86,0,0,0,2,2,3.81,3.81,0,0,0,1.61-.3l.18.76a4.7,4.7,0,0,1-1.93.36,2.7,2.7,0,0,1-2.85-2.93c0-1.75,1-3.13,2.72-3.13a2.46,2.46,0,0,1,2.4,2.73,4,4,0,0,1,0,.49Zm3.09-.76a1.5,1.5,0,0,0-1.46-1.71,1.75,1.75,0,0,0-1.62,1.71Z" transform="translate(-19.75 -8.67)"/>
    </g>
    <g id="txt_2">
      <path d="M77.84,157.64V157l.83-.8c2-1.9,2.89-2.9,2.9-4.08A1.39,1.39,0,0,0,80,150.58a2.65,2.65,0,0,0-1.66.66L78,150.5a3.42,3.42,0,0,1,2.21-.79A2.19,2.19,0,0,1,82.63,152c0,1.44-1,2.6-2.69,4.19l-.62.58v0h3.5v.88Z" transform="translate(-19.75 -8.67)"/>
      <path d="M89.18,153.65c0,2.65-1,4.11-2.71,4.11-1.52,0-2.55-1.43-2.58-4s1.13-4.05,2.71-4.05S89.18,151.17,89.18,153.65Zm-4.23.12c0,2,.62,3.18,1.58,3.18s1.6-1.26,1.6-3.25-.49-3.18-1.58-3.18C85.62,150.52,84.94,151.65,84.94,153.77Z" transform="translate(-19.75 -8.67)"/>
      <path d="M92.44,150.82h0l-1.36.73-.2-.8,1.7-.91h.9v7.8h-1Z" transform="translate(-19.75 -8.67)"/>
      <path d="M101.49,153.65c0,2.65-1,4.11-2.71,4.11-1.52,0-2.55-1.43-2.58-4s1.13-4.05,2.71-4.05S101.49,151.17,101.49,153.65Zm-4.23.12c0,2,.62,3.18,1.58,3.18s1.6-1.26,1.6-3.25-.49-3.18-1.58-3.18C97.93,150.52,97.26,151.65,97.26,153.77Z" transform="translate(-19.75 -8.67)"/>
      <path d="M106.63,157.64V154.2l-2.55-4.65h1.19l1.14,2.23c.31.61.55,1.1.8,1.67h0c.23-.53.5-1.06.82-1.67l1.16-2.23h1.19l-2.71,4.64v3.44Z" transform="translate(-19.75 -8.67)"/>
      <path d="M111,154.92a1.86,1.86,0,0,0,2,2,3.81,3.81,0,0,0,1.61-.3l.18.76a4.7,4.7,0,0,1-1.93.36,2.7,2.7,0,0,1-2.85-2.93c0-1.75,1-3.13,2.72-3.13a2.46,2.46,0,0,1,2.4,2.73,4,4,0,0,1,0,.49Zm3.09-.76a1.5,1.5,0,0,0-1.46-1.71,1.75,1.75,0,0,0-1.62,1.71Z" transform="translate(-19.75 -8.67)"/>
      <path d="M119.6,157.64l-.08-.73h0a2.16,2.16,0,0,1-1.77.86,1.65,1.65,0,0,1-1.77-1.67c0-1.4,1.25-2.17,3.49-2.16v-.12a1.2,1.2,0,0,0-1.32-1.34,2.89,2.89,0,0,0-1.51.43l-.24-.7a3.6,3.6,0,0,1,1.91-.52c1.77,0,2.21,1.21,2.21,2.37v2.17a8.14,8.14,0,0,0,.1,1.39Zm-.16-3c-1.15,0-2.46.18-2.46,1.31a.93.93,0,0,0,1,1,1.44,1.44,0,0,0,1.4-1,1.11,1.11,0,0,0,.06-.34Z" transform="translate(-19.75 -8.67)"/>
      <path d="M122.17,153.64c0-.68,0-1.27,0-1.81H123l0,1.14h0a1.74,1.74,0,0,1,1.61-1.27,1.15,1.15,0,0,1,.3,0v1a1.59,1.59,0,0,0-.36,0,1.48,1.48,0,0,0-1.42,1.36,3,3,0,0,0,0,.49v3.09h-1Z" transform="translate(-19.75 -8.67)"/>
      <path d="M133.89,154.68a2.84,2.84,0,0,1-2.89,3.08,2.76,2.76,0,0,1-2.78-3,2.83,2.83,0,0,1,2.88-3.08A2.75,2.75,0,0,1,133.89,154.68Zm-4.61.06c0,1.27.73,2.23,1.76,2.23s1.76-.95,1.76-2.25c0-1-.49-2.23-1.74-2.23S129.28,153.64,129.28,154.74Z" transform="translate(-19.75 -8.67)"/>
      <path d="M135.33,157.64v-5h-.82v-.8h.82v-.28a2.74,2.74,0,0,1,.67-2,2,2,0,0,1,1.42-.54,2.45,2.45,0,0,1,.9.17l-.14.82a1.57,1.57,0,0,0-.67-.13c-.9,0-1.13.79-1.13,1.68v.31h1.4v.8h-1.4v5Z" transform="translate(-19.75 -8.67)"/>
      <path d="M141.31,149.66a10.87,10.87,0,0,1,2-.17,3.31,3.31,0,0,1,2.34.66,2,2,0,0,1,.64,1.54,2.12,2.12,0,0,1-1.52,2.06v0a2,2,0,0,1,1.19,1.63,12.88,12.88,0,0,0,.62,2.22h-1.08a10.45,10.45,0,0,1-.54-1.93c-.24-1.12-.67-1.54-1.62-1.57h-1v3.5h-1Zm1,3.68h1.07c1.12,0,1.82-.61,1.82-1.54s-.76-1.5-1.86-1.51a4.3,4.3,0,0,0-1,.1Z" transform="translate(-19.75 -8.67)"/>
      <path d="M148.36,154.92a1.86,1.86,0,0,0,2,2,3.81,3.81,0,0,0,1.61-.3l.18.76a4.7,4.7,0,0,1-1.93.36,2.7,2.7,0,0,1-2.85-2.93c0-1.75,1-3.13,2.72-3.13a2.46,2.46,0,0,1,2.4,2.73,4,4,0,0,1,0,.49Zm3.09-.76a1.5,1.5,0,0,0-1.46-1.71,1.75,1.75,0,0,0-1.62,1.71Z" transform="translate(-19.75 -8.67)"/>
      <path d="M153.64,156.56A2.77,2.77,0,0,0,155,157c.77,0,1.13-.38,1.13-.86s-.3-.78-1.08-1.07c-1-.37-1.54-.95-1.54-1.64a1.79,1.79,0,0,1,2-1.7,2.9,2.9,0,0,1,1.43.36l-.26.77a2.26,2.26,0,0,0-1.19-.34c-.62,0-1,.36-1,.79s.35.7,1.1,1c1,.38,1.52.89,1.52,1.75,0,1-.79,1.74-2.17,1.74a3.31,3.31,0,0,1-1.63-.4Z" transform="translate(-19.75 -8.67)"/>
      <path d="M158.54,153.73c0-.74,0-1.34,0-1.9h.95l0,1h0a2.28,2.28,0,0,1,2.06-1.13c1.4,0,2.46,1.19,2.46,3,0,2.09-1.27,3.12-2.64,3.12a2,2,0,0,1-1.79-.91h0V160h-1Zm1,1.55a2.38,2.38,0,0,0,0,.43,1.63,1.63,0,0,0,1.58,1.24c1.12,0,1.76-.91,1.76-2.24,0-1.16-.61-2.16-1.73-2.16a1.68,1.68,0,0,0-1.6,1.31,1.73,1.73,0,0,0-.07.43Z" transform="translate(-19.75 -8.67)"/>
      <path d="M170.62,154.68a2.84,2.84,0,0,1-2.89,3.08,2.76,2.76,0,0,1-2.78-3,2.83,2.83,0,0,1,2.88-3.08A2.75,2.75,0,0,1,170.62,154.68Zm-4.61.06c0,1.27.73,2.23,1.76,2.23s1.76-.95,1.76-2.25c0-1-.49-2.23-1.74-2.23S166,153.64,166,154.74Z" transform="translate(-19.75 -8.67)"/>
      <path d="M172,153.4c0-.6,0-1.09,0-1.57h.94l.06,1h0a2.13,2.13,0,0,1,1.92-1.09c.8,0,2.05.48,2.05,2.47v3.47h-1.05v-3.35c0-.94-.35-1.71-1.34-1.71a1.5,1.5,0,0,0-1.42,1.08,1.52,1.52,0,0,0-.07.49v3.49H172Z" transform="translate(-19.75 -8.67)"/>
      <path d="M178.47,156.56a2.76,2.76,0,0,0,1.39.42c.77,0,1.13-.38,1.13-.86s-.3-.78-1.08-1.07c-1-.37-1.54-.95-1.54-1.64a1.79,1.79,0,0,1,2-1.7,2.89,2.89,0,0,1,1.43.36l-.26.77a2.26,2.26,0,0,0-1.19-.34c-.62,0-1,.36-1,.79s.35.7,1.1,1c1,.38,1.52.89,1.52,1.75,0,1-.79,1.74-2.17,1.74a3.31,3.31,0,0,1-1.63-.4Z" transform="translate(-19.75 -8.67)"/>
      <path d="M184.54,150.2a.65.65,0,0,1-1.31,0,.64.64,0,0,1,.66-.66A.63.63,0,0,1,184.54,150.2Zm-1.17,7.44v-5.8h1.05v5.8Z" transform="translate(-19.75 -8.67)"/>
      <path d="M186.58,151.83l1.14,3.26a15.13,15.13,0,0,1,.47,1.49h0c.13-.48.3-1,.49-1.49l1.13-3.26h1.1l-2.28,5.8h-1l-2.21-5.8Z" transform="translate(-19.75 -8.67)"/>
      <path d="M192.41,154.92a1.86,1.86,0,0,0,2,2,3.82,3.82,0,0,0,1.61-.3l.18.76a4.7,4.7,0,0,1-1.93.36,2.7,2.7,0,0,1-2.85-2.93c0-1.75,1-3.13,2.72-3.13a2.46,2.46,0,0,1,2.4,2.73,4,4,0,0,1,0,.49Zm3.09-.76a1.5,1.5,0,0,0-1.46-1.71,1.75,1.75,0,0,0-1.62,1.71Z" transform="translate(-19.75 -8.67)"/>
      <path d="M201.3,157.64l-2.05-8.08h1.1l1,4.09c.24,1,.46,2,.6,2.79h0c.13-.8.38-1.76.66-2.81l1.08-4.08h1.09l1,4.1c.23,1,.44,1.92.56,2.77h0c.17-.89.4-1.79.65-2.79l1.07-4.08h1.07l-2.29,8.08h-1.09l-1-4.21a24.68,24.68,0,0,1-.53-2.64h0a25.45,25.45,0,0,1-.62,2.64l-1.15,4.21Z" transform="translate(-19.75 -8.67)"/>
      <path d="M210.29,154.92a1.86,1.86,0,0,0,2,2,3.82,3.82,0,0,0,1.61-.3l.18.76a4.7,4.7,0,0,1-1.93.36,2.7,2.7,0,0,1-2.85-2.93c0-1.75,1-3.13,2.72-3.13a2.46,2.46,0,0,1,2.4,2.73,4,4,0,0,1,0,.49Zm3.09-.76a1.5,1.5,0,0,0-1.46-1.71,1.75,1.75,0,0,0-1.62,1.71Z" transform="translate(-19.75 -8.67)"/>
      <path d="M215.67,157.64c0-.4,0-1,0-1.5v-7h1v3.65h0a2.16,2.16,0,0,1,2-1.07c1.44,0,2.46,1.2,2.45,3,0,2.08-1.31,3.11-2.6,3.11a2.07,2.07,0,0,1-1.94-1.09h0l0,1Zm1.09-2.33a2,2,0,0,0,0,.38,1.63,1.63,0,0,0,1.58,1.24c1.1,0,1.76-.9,1.76-2.23,0-1.16-.6-2.16-1.73-2.16a1.68,1.68,0,0,0-1.61,1.3,2.11,2.11,0,0,0-.06.43Z" transform="translate(-19.75 -8.67)"/>
      <path d="M227.56,149.12v7c0,.52,0,1.1,0,1.5h-.95l0-1h0a2.15,2.15,0,0,1-2,1.14c-1.4,0-2.48-1.19-2.48-3,0-1.93,1.19-3.12,2.6-3.12a1.94,1.94,0,0,1,1.75.89h0v-3.47Zm-1.06,5.07a1.85,1.85,0,0,0,0-.44,1.55,1.55,0,0,0-1.52-1.22c-1.09,0-1.74,1-1.74,2.24s.58,2.15,1.71,2.15a1.59,1.59,0,0,0,1.55-1.26,1.83,1.83,0,0,0,0-.46Z" transform="translate(-19.75 -8.67)"/>
      <path d="M229.9,154.92a1.86,1.86,0,0,0,2,2,3.82,3.82,0,0,0,1.61-.3l.18.76a4.7,4.7,0,0,1-1.93.36,2.7,2.7,0,0,1-2.85-2.93c0-1.75,1-3.13,2.72-3.13a2.46,2.46,0,0,1,2.4,2.73,4,4,0,0,1,0,.49Zm3.09-.76a1.5,1.5,0,0,0-1.46-1.71,1.75,1.75,0,0,0-1.62,1.71Z" transform="translate(-19.75 -8.67)"/>
      <path d="M235.18,156.56a2.76,2.76,0,0,0,1.39.42c.77,0,1.13-.38,1.13-.86s-.3-.78-1.08-1.07c-1-.37-1.54-.95-1.54-1.64a1.79,1.79,0,0,1,2-1.7,2.89,2.89,0,0,1,1.43.36l-.26.77a2.26,2.26,0,0,0-1.19-.34c-.62,0-1,.36-1,.79s.35.7,1.1,1c1,.38,1.52.89,1.52,1.75,0,1-.79,1.74-2.17,1.74a3.31,3.31,0,0,1-1.63-.4Z" transform="translate(-19.75 -8.67)"/>
      <path d="M241.25,150.2a.65.65,0,0,1-1.31,0,.64.64,0,0,1,.66-.66A.63.63,0,0,1,241.25,150.2Zm-1.17,7.44v-5.8h1.05v5.8Z" transform="translate(-19.75 -8.67)"/>
      <path d="M247.89,151.83c0,.42,0,.89,0,1.6v3.37a3.34,3.34,0,0,1-.83,2.65,3.08,3.08,0,0,1-2.11.7,3.74,3.74,0,0,1-1.93-.48l.26-.8a3.27,3.27,0,0,0,1.7.46c1.08,0,1.87-.56,1.87-2v-.65h0a2.07,2.07,0,0,1-1.85,1,2.59,2.59,0,0,1-2.47-2.83,2.79,2.79,0,0,1,2.61-3.08,1.93,1.93,0,0,1,1.81,1h0l0-.88Zm-1.09,2.29a1.5,1.5,0,0,0-.06-.48,1.52,1.52,0,0,0-1.48-1.12c-1,0-1.73.85-1.73,2.19,0,1.14.58,2.09,1.71,2.09a1.54,1.54,0,0,0,1.46-1.08,1.82,1.82,0,0,0,.08-.56Z" transform="translate(-19.75 -8.67)"/>
      <path d="M249.52,153.4c0-.6,0-1.09,0-1.57h.94l.06,1h0a2.14,2.14,0,0,1,1.92-1.09c.8,0,2.05.48,2.05,2.47v3.47h-1.05v-3.35c0-.94-.35-1.71-1.34-1.71a1.5,1.5,0,0,0-1.42,1.08,1.52,1.52,0,0,0-.07.49v3.49h-1.05Z" transform="translate(-19.75 -8.67)"/>
    </g>
    <g id="txt_3">
      <path d="M47.67,267.19a5.19,5.19,0,0,1-2.13.38,3.78,3.78,0,0,1-4-4.09,4,4,0,0,1,4.22-4.25,4.32,4.32,0,0,1,1.92.36l-.25.85a3.79,3.79,0,0,0-1.63-.34,3,3,0,0,0-3.15,3.33,2.94,2.94,0,0,0,3.11,3.25,4.17,4.17,0,0,0,1.7-.34Z" transform="translate(-19.75 -8.67)"/>
      <path d="M48.83,266.18a3.7,3.7,0,0,0,1.87.53c1.07,0,1.69-.56,1.69-1.38s-.43-1.19-1.52-1.61c-1.32-.47-2.13-1.15-2.13-2.29a2.33,2.33,0,0,1,2.61-2.2,3.67,3.67,0,0,1,1.79.4l-.29.85a3.21,3.21,0,0,0-1.54-.38c-1.1,0-1.52.66-1.52,1.21,0,.76.49,1.13,1.61,1.56,1.37.53,2.06,1.19,2.06,2.37s-.92,2.33-2.83,2.33a4.18,4.18,0,0,1-2.06-.52Z" transform="translate(-19.75 -8.67)"/>
      <path d="M54.75,266.18a3.7,3.7,0,0,0,1.87.53c1.07,0,1.69-.56,1.69-1.38s-.43-1.19-1.52-1.61c-1.32-.47-2.13-1.15-2.13-2.29a2.33,2.33,0,0,1,2.61-2.2,3.67,3.67,0,0,1,1.79.4l-.29.85a3.21,3.21,0,0,0-1.54-.38c-1.1,0-1.52.66-1.52,1.21,0,.76.49,1.13,1.61,1.56,1.37.53,2.06,1.19,2.06,2.37s-.92,2.33-2.83,2.33a4.18,4.18,0,0,1-2.06-.52Z" transform="translate(-19.75 -8.67)"/>
      <path d="M69.5,267.09a7.56,7.56,0,0,1-2.48.44,3.8,3.8,0,0,1-4.15-4.08,4.05,4.05,0,0,1,4.38-4.17,5,5,0,0,1,2,.37l-.25.85a4.2,4.2,0,0,0-1.79-.35A3,3,0,0,0,64,263.41a3,3,0,0,0,3.12,3.26,3.42,3.42,0,0,0,1.39-.22V264H66.84v-.84H69.5Z" transform="translate(-19.75 -8.67)"/>
      <path d="M71.07,263.46c0-.68,0-1.27,0-1.81h.92l0,1.14h0a1.74,1.74,0,0,1,1.61-1.27,1.12,1.12,0,0,1,.3,0v1a1.56,1.56,0,0,0-.36,0,1.48,1.48,0,0,0-1.42,1.36,3,3,0,0,0,0,.49v3.09h-1Z" transform="translate(-19.75 -8.67)"/>
      <path d="M76.21,260a.65.65,0,0,1-1.31,0,.64.64,0,0,1,.66-.66A.63.63,0,0,1,76.21,260ZM75,267.45v-5.8H76.1v5.8Z" transform="translate(-19.75 -8.67)"/>
      <path d="M82.86,258.93v7c0,.52,0,1.1,0,1.5H82l0-1h0a2.15,2.15,0,0,1-2,1.14c-1.4,0-2.48-1.19-2.48-3,0-1.93,1.19-3.12,2.6-3.12a1.94,1.94,0,0,1,1.75.89h0v-3.47ZM81.81,264a1.85,1.85,0,0,0,0-.44,1.55,1.55,0,0,0-1.52-1.22c-1.09,0-1.74,1-1.74,2.24s.58,2.15,1.72,2.15a1.59,1.59,0,0,0,1.55-1.26,1.83,1.83,0,0,0,0-.46Z" transform="translate(-19.75 -8.67)"/>
      <path d="M92.15,263.82v.78h-3v-.78Z" transform="translate(-19.75 -8.67)"/>
      <path d="M96,259.46a12.08,12.08,0,0,1,2-.16,3.32,3.32,0,0,1,2.27.67,2.17,2.17,0,0,1,.71,1.69,2.38,2.38,0,0,1-.62,1.73,3.35,3.35,0,0,1-2.47.89,3.61,3.61,0,0,1-.84-.07v3.24H96Zm1,3.9a3.52,3.52,0,0,0,.86.08c1.26,0,2-.61,2-1.73s-.76-1.58-1.91-1.58a4.38,4.38,0,0,0-1,.08Z" transform="translate(-19.75 -8.67)"/>
      <path d="M102.12,263.46c0-.68,0-1.27,0-1.81H103l0,1.14h0a1.74,1.74,0,0,1,1.61-1.27,1.12,1.12,0,0,1,.3,0v1a1.56,1.56,0,0,0-.36,0,1.48,1.48,0,0,0-1.42,1.36,3,3,0,0,0,0,.49v3.09h-1Z" transform="translate(-19.75 -8.67)"/>
      <path d="M111.18,264.5a2.84,2.84,0,0,1-2.89,3.08,2.76,2.76,0,0,1-2.78-3,2.83,2.83,0,0,1,2.88-3.08A2.75,2.75,0,0,1,111.18,264.5Zm-4.61.06c0,1.27.73,2.23,1.76,2.23s1.76-.95,1.76-2.25c0-1-.49-2.23-1.74-2.23S106.57,263.46,106.57,264.56Z" transform="translate(-19.75 -8.67)"/>
      <path d="M117.52,261.65c0,.42,0,.89,0,1.59v3.37a3.34,3.34,0,0,1-.83,2.65,3.08,3.08,0,0,1-2.11.7,3.75,3.75,0,0,1-1.93-.48l.26-.8a3.28,3.28,0,0,0,1.7.46c1.08,0,1.87-.56,1.87-2v-.65h0a2.07,2.07,0,0,1-1.85,1,2.59,2.59,0,0,1-2.47-2.83,2.79,2.79,0,0,1,2.61-3.08,1.93,1.93,0,0,1,1.81,1h0l0-.87Zm-1.09,2.29a1.54,1.54,0,0,0-1.54-1.6c-1,0-1.73.85-1.73,2.2,0,1.14.58,2.09,1.72,2.09a1.54,1.54,0,0,0,1.46-1.08,1.83,1.83,0,0,0,.08-.56Z" transform="translate(-19.75 -8.67)"/>
      <path d="M119.15,263.46c0-.68,0-1.27,0-1.81H120l0,1.14h0a1.74,1.74,0,0,1,1.61-1.27,1.13,1.13,0,0,1,.3,0v1a1.57,1.57,0,0,0-.36,0,1.48,1.48,0,0,0-1.42,1.36,3,3,0,0,0,0,.49v3.09h-1Z" transform="translate(-19.75 -8.67)"/>
      <path d="M123.54,264.74a1.86,1.86,0,0,0,2,2,3.81,3.81,0,0,0,1.61-.3l.18.75a4.7,4.7,0,0,1-1.93.36,2.7,2.7,0,0,1-2.85-2.93c0-1.75,1-3.13,2.72-3.13a2.46,2.46,0,0,1,2.4,2.73,4,4,0,0,1,0,.49Zm3.09-.75a1.5,1.5,0,0,0-1.46-1.71,1.75,1.75,0,0,0-1.62,1.71Z" transform="translate(-19.75 -8.67)"/>
      <path d="M128.82,266.37a2.78,2.78,0,0,0,1.39.42c.77,0,1.13-.38,1.13-.86s-.3-.78-1.08-1.07c-1-.37-1.54-.95-1.54-1.64a1.79,1.79,0,0,1,2-1.7,2.9,2.9,0,0,1,1.43.36l-.26.77a2.26,2.26,0,0,0-1.19-.34c-.62,0-1,.36-1,.79s.35.7,1.1,1c1,.38,1.52.89,1.52,1.75,0,1-.79,1.74-2.17,1.74a3.32,3.32,0,0,1-1.63-.4Z" transform="translate(-19.75 -8.67)"/>
      <path d="M133.57,266.37a2.78,2.78,0,0,0,1.39.42c.77,0,1.13-.38,1.13-.86s-.3-.78-1.08-1.07c-1-.37-1.54-.95-1.54-1.64a1.79,1.79,0,0,1,2-1.7,2.9,2.9,0,0,1,1.43.36l-.26.77a2.26,2.26,0,0,0-1.19-.34c-.62,0-1,.36-1,.79s.35.7,1.1,1c1,.38,1.52.89,1.52,1.75,0,1-.79,1.74-2.17,1.74a3.32,3.32,0,0,1-1.63-.4Z" transform="translate(-19.75 -8.67)"/>
      <path d="M139.65,260a.65.65,0,0,1-1.31,0,.64.64,0,0,1,.66-.66A.63.63,0,0,1,139.65,260Zm-1.18,7.44v-5.8h1.06v5.8Z" transform="translate(-19.75 -8.67)"/>
      <path d="M141.69,261.65l1.14,3.26a15,15,0,0,1,.47,1.49h0c.13-.48.3-1,.49-1.49l1.13-3.26h1.1l-2.28,5.8h-1l-2.21-5.8Z" transform="translate(-19.75 -8.67)"/>
      <path d="M147.52,264.74a1.86,1.86,0,0,0,2,2,3.81,3.81,0,0,0,1.61-.3l.18.75a4.7,4.7,0,0,1-1.93.36,2.7,2.7,0,0,1-2.85-2.93c0-1.75,1-3.13,2.72-3.13a2.46,2.46,0,0,1,2.4,2.73,4,4,0,0,1,0,.49Zm3.09-.75a1.5,1.5,0,0,0-1.46-1.71,1.75,1.75,0,0,0-1.62,1.71Z" transform="translate(-19.75 -8.67)"/>
      <path d="M156.41,267.45l-2.05-8.08h1.1l1,4.09c.24,1,.46,2,.6,2.79h0c.13-.8.38-1.76.66-2.81l1.08-4.08h1.09l1,4.1c.23,1,.44,1.92.56,2.77h0c.17-.89.4-1.79.65-2.79l1.07-4.08h1.07l-2.29,8.08h-1.09l-1-4.21a24.27,24.27,0,0,1-.53-2.64h0a25.25,25.25,0,0,1-.62,2.64l-1.15,4.21Z" transform="translate(-19.75 -8.67)"/>
      <path d="M165.4,264.74a1.86,1.86,0,0,0,2,2,3.81,3.81,0,0,0,1.61-.3l.18.75a4.7,4.7,0,0,1-1.93.36,2.7,2.7,0,0,1-2.85-2.93c0-1.75,1-3.13,2.72-3.13a2.46,2.46,0,0,1,2.4,2.73,4,4,0,0,1,0,.49Zm3.09-.75a1.5,1.5,0,0,0-1.46-1.71,1.75,1.75,0,0,0-1.62,1.71Z" transform="translate(-19.75 -8.67)"/>
      <path d="M170.77,267.45c0-.4,0-1,0-1.5v-7h1v3.65h0a2.16,2.16,0,0,1,2-1.07c1.44,0,2.46,1.2,2.45,3,0,2.08-1.31,3.11-2.6,3.11a2.07,2.07,0,0,1-1.94-1.09h0l0,1Zm1.09-2.33a2,2,0,0,0,0,.38,1.63,1.63,0,0,0,1.58,1.24c1.1,0,1.76-.9,1.76-2.23,0-1.16-.6-2.16-1.73-2.16a1.68,1.68,0,0,0-1.61,1.3,2.08,2.08,0,0,0-.06.43Z" transform="translate(-19.75 -8.67)"/>
      <path d="M181.54,264.91l-.84,2.54h-1.08l2.75-8.08h1.26l2.76,8.08h-1.12l-.86-2.54Zm2.65-.82-.79-2.33c-.18-.53-.3-1-.42-1.48h0c-.12.48-.25,1-.41,1.46l-.79,2.34Z" transform="translate(-19.75 -8.67)"/>
      <path d="M187.5,263.54c0-.74,0-1.34,0-1.89h.95l0,1h0a2.28,2.28,0,0,1,2.06-1.13c1.4,0,2.46,1.19,2.46,3,0,2.09-1.27,3.12-2.64,3.12a2,2,0,0,1-1.79-.91h0v3.15h-1Zm1,1.55a2.43,2.43,0,0,0,0,.43,1.63,1.63,0,0,0,1.58,1.24c1.12,0,1.76-.91,1.76-2.24,0-1.16-.61-2.16-1.73-2.16a1.68,1.68,0,0,0-1.59,1.31,1.71,1.71,0,0,0-.07.43Z" transform="translate(-19.75 -8.67)"/>
      <path d="M194.33,263.54c0-.74,0-1.34,0-1.89h.95l0,1h0a2.28,2.28,0,0,1,2.06-1.13c1.4,0,2.46,1.19,2.46,3,0,2.09-1.27,3.12-2.64,3.12a2,2,0,0,1-1.79-.91h0v3.15h-1Zm1,1.55a2.43,2.43,0,0,0,0,.43,1.63,1.63,0,0,0,1.58,1.24c1.12,0,1.76-.91,1.76-2.24,0-1.16-.61-2.16-1.73-2.16a1.68,1.68,0,0,0-1.59,1.31,1.71,1.71,0,0,0-.07.43Z" transform="translate(-19.75 -8.67)"/>
    </g>
  </g>
</svg>
