<?xml version="1.0" encoding="utf-8"?>
<!-- Generator: Adobe Illustrator 21.1.0, SVG Export Plug-In . SVG Version: 6.00 Build 0)  -->
<svg version="1.1" id="Layer_1" xmlns="http://www.w3.org/2000/svg" xmlns:xlink="http://www.w3.org/1999/xlink" x="0px" y="0px"
	 viewBox="0 0 960 560" style="enable-background:new 0 0 960 560;" xml:space="preserve">
<style type="text/css">
	.st0{fill:#FFFFFF;stroke:#000000;stroke-width:3;stroke-miterlimit:10;}
	.st1{fill:none;stroke:#000000;stroke-width:3;stroke-miterlimit:10;}
	.st2{fill:none;stroke:#000000;stroke-miterlimit:10;}
	.st3{opacity:7.000000e-02;stroke:#000000;stroke-miterlimit:10;enable-background:new    ;}
	.st4{opacity:9.000000e-02;stroke:#000000;stroke-miterlimit:10;enable-background:new    ;}
	.st5{opacity:6.000000e-02;stroke:#000000;stroke-miterlimit:10;enable-background:new    ;}
</style>
<g id="grafik">
	<circle class="st0" cx="355.9" cy="256.7" r="35.2"/>
	<g>
		<g>
			<path d="M338.9,287.2c-5.3,20.1-20.4,36.3-24.6,56.8c-3.9,18.9,4.4,38.4,17.3,52.1c11.8,12.6,31,23.5,48.9,22.5
				c8.8-0.5,12.2-9.3,14.2-16.7c3-11,3-22.5,1.7-33.7c-1.6-13.5-5-26.7-8.2-39.9c-3.5-14.5-6.9-29.1-10.4-43.6
				c-0.4-1.9-3.3-1.1-2.9,0.8c5.2,21.8,10.8,43.5,15.5,65.3c2.3,10.9,4.2,22.1,3.9,33.3c-0.1,5.1-0.7,10.2-1.9,15.2
				c-1.2,4.8-2.7,11-6.6,14.2c-4.1,3.3-10.6,1.8-15.3,0.9c-4.7-0.9-9.4-2.4-13.8-4.4c-7.7-3.4-14.8-8.2-20.8-14.1
				c-13.7-13.4-22.7-33.4-18.2-52.7c4.6-19.8,19.1-35.6,24.3-55.3C342.2,286.1,339.4,285.3,338.9,287.2L338.9,287.2z"/>
		</g>
	</g>
	<g>
		<g>
			<path d="M333.5,299.8c-6.9-1.8-14.3,3.2-19.5,7.2c-6.3,4.8-11.5,10.7-16.4,16.9c-9.9,12.4-19.2,26.3-19.4,42.7c0,1.9,3,1.9,3,0
				c0.2-15,8.5-27.9,17.5-39.3c4-5,8.1-10,12.9-14.3c4.9-4.5,14-12.1,21.2-10.3C334.6,303.2,335.4,300.3,333.5,299.8L333.5,299.8z"
				/>
		</g>
	</g>
	<g>
		<g>
			<path d="M378.9,305.7c14.1,34.4,24.6,70,31.6,106.5c0.4,1.9,3.3,1.1,2.9-0.8c-6.9-36.5-17.5-72.1-31.6-106.5
				C381.1,303.1,378.2,303.9,378.9,305.7L378.9,305.7z"/>
		</g>
	</g>
	<g>
		<g>
			<path d="M327.8,391.9c0.8,21,1.7,42.1,5,62.9c1.6,10.4,3.8,20.7,6.9,30.8c1.5,4.8,2.9,9.9,5.1,14.5c0.9,1.8,1.8,3,4.1,2.6
				c0.7-0.2,1.3-1.1,1-1.8c-0.1-0.1-0.1-0.3-0.2-0.4c-0.7-1.8-3.6-1-2.9,0.8c0.1,0.1,0.1,0.3,0.2,0.4c0.3-0.6,0.7-1.2,1-1.8
				c-1.8,0.4-7.7-22.6-8.4-25.3c-2.3-9.2-3.9-18.6-5.1-28c-2.3-18-3.1-36.2-3.8-54.4C330.8,389.9,327.8,389.9,327.8,391.9
				L327.8,391.9z"/>
		</g>
	</g>
	<g>
		<g>
			<path d="M382.4,417.5c4.6,19.9,5.6,40.3,6.8,60.6c0.3,4.7,0.6,9.5,1,14.2c0.3,4.3,0.2,9.4,1.3,13.6c0.7,2.6,4.7,4.1,4.7,0.4
				c0-1.9-3-1.9-3,0c1.1-1.4,1.3-2.9,0.9-4.6c-0.1-0.6-0.1-1.3-0.2-1.9c-0.2-1.9-0.4-3.8-0.5-5.7c-0.3-3.8-0.6-7.6-0.8-11.4
				c-0.5-7.6-0.9-15.2-1.4-22.7c-1-14.6-2.5-29.2-5.8-43.5C384.9,414.9,382,415.7,382.4,417.5L382.4,417.5z"/>
		</g>
	</g>
	<g>
		<g>
			<path d="M343.2,248.6c0.1,0.1,0.2,0.1,0.3,0.2c0,0,0.2,0.2,0.2,0.1c-0.1-0.1,0.2,0.2,0.2,0.2s0.2,0.3,0.2,0.2
				c-0.1-0.1,0.3,0.5,0.2,0.3c0.1,0.2,0.1,0.5,0.2,0.7c0.1,0.8,1.1,1.2,1.8,1c0.9-0.2,1.2-1,1-1.8c-0.2-1.5-1.3-2.8-2.6-3.5
				c-0.7-0.4-1.6-0.2-2.1,0.5C342.3,247.2,342.5,248.2,343.2,248.6L343.2,248.6z"/>
		</g>
	</g>
	<g>
		<g>
			<path d="M369.7,252.5C369.6,252.3,369.6,252.3,369.7,252.5c-0.1-0.3-0.2-0.3-0.1-0.1c0-0.2,0-0.3,0-0.1c0-0.1,0-0.1,0-0.2
				c0,0.1,0,0.1-0.1,0.2c0.1-0.2,0.1-0.2,0-0.1c-0.1,0.2-0.2,0.2,0,0c0,0.1-0.1,0.1-0.1,0.1c0.2-0.1,0.2-0.1,0.1,0
				c-0.1,0-0.1,0.1-0.2,0.1c0.1,0,0.1-0.1,0.2-0.1c-0.3,0,0.4,0.1-0.1,0c0.1,0,0.3,0,0.4,0.1c-0.1-0.1-0.1-0.1,0,0s0.1,0.1,0,0
				c0.1,0.1,0.2,0.2,0.2,0.3c0-0.1,0-0.1,0-0.2c0,0.2,0,0.3,0,0.2s0-0.1,0,0.2c0-0.1,0-0.1,0-0.2c0.1-0.3-0.1,0.3,0-0.1l0.1-0.1
				c-0.1,0.2-0.1,0.2,0,0.1c0.2-0.2-0.3,0.1,0.1,0c0.1-0.1,0.1,0-0.1,0.1c0.2,0,0.1,0-0.1,0C370,252.6,370,252.6,369.7,252.5
				C369.9,252.6,369.9,252.6,369.7,252.5c0.7,0.3,1.6,0.2,2-0.6c0.4-0.7,0.2-1.7-0.5-2.1c-1.4-0.7-2.9-0.1-3.7,1.2
				c-0.8,1.2-0.6,2.8,0.5,3.7c1.2,0.9,2.8,0.6,3.7-0.5c1-1.1,1.2-2.7,0.2-3.9c-0.5-0.6-1.6-0.5-2.1,0
				C369.1,251,369.2,251.9,369.7,252.5L369.7,252.5z"/>
		</g>
	</g>
	<g>
		<g>
			<path d="M345.5,249.9c0-0.4,0-0.9,0-1.3c0-0.8-0.7-1.5-1.5-1.5s-1.5,0.7-1.5,1.5c0,0.4,0,0.9,0,1.3c0,0.8,0.7,1.5,1.5,1.5
				S345.5,250.7,345.5,249.9L345.5,249.9z"/>
		</g>
	</g>
	<g>
		<g>
			<path d="M115.3,157.9c3.5,12.6,7.6,25.7,13.8,37.4c2.4,4.6,5.7,7.3,10.3,9.5c7,3.5,14.1,6.6,21.2,9.9
				c11.5,5.4,23.5,12.6,36.6,12.4c13.5-0.2,27.3-4.5,40.5-7.2c5.9-1.2,20.9-3.2,16.7-13.1c-1.6-3.6-5.5-5.8-8.9-7.3
				c-6.8-2.9-14-5.2-21-7.7c-6.6-2.4-13.2-4.7-19.8-7c-3.1-1.1-7-1.8-9.8-3.5c-3.6-2.2-5.3-7.6-7.2-11.1
				c-3.2-5.9-6.6-11.8-10.2-17.5c-2.6-4.2-5.1-9.7-10-11.4c-5.8-2-13.4-0.8-19.5-0.9c-7,0-14.3-0.7-21.2,0.5
				c-8.7,1.5-18.6,10.5-12.3,19.7c1.1,1.6,3.7,0.1,2.6-1.5c-3.5-5,0-11.1,4.8-13.6c5-2.6,11.2-2.1,16.7-2.1c5.6,0,11.2,0.1,16.8,0.1
				c2.3,0,4.7-0.1,7.1,0.1c4.6,0.3,7,2.3,9.5,6c6.1,9.2,11.3,19,16.6,28.7c4.3,8,14.5,9.2,22.5,12c10.8,3.8,21.7,7.4,32.4,11.7
				c2.3,0.9,4.6,2,6.4,3.7c3.5,3.3,1.7,7.3-2.4,9c-5,2-10.9,2.5-16.1,3.6c-11.4,2.3-23.3,6-35,5.9c-11.9-0.1-22.8-6.6-33.3-11.5
				c-6-2.8-12-5.6-18-8.4c-5.8-2.7-10.6-5-13.6-11c-5.7-11.4-9.8-23.7-13.1-36C117.7,155.3,114.8,156.1,115.3,157.9L115.3,157.9z"/>
		</g>
	</g>
	<g>
		<g>
			<path d="M123.5,154.6c4.1,7.4,8.7,14.7,12.2,22.3c2.2,4.8,2.4,13.1,6.8,16.5c4.9,3.9,12.9-1.3,17.8-2.8c8.9-2.8,18-4.5,27.3-5.5
				c1-0.1,2-1.2,1.3-2.3c-4.3-6.1-8.7-12.1-13.3-18c-2.4-3.1-4.9-6.2-7.4-9.3c-2.1-2.5-4.1-5.7-6.8-7.7c-4.9-3.5-10.7-0.3-15.9,0.4
				c-7,0.8-14-0.3-20.7,2.2c-1.8,0.7-1,3.6,0.8,2.9c6.2-2.3,12.6-1.5,19.1-2c2.4-0.2,4.6-0.7,6.9-1.3c4.2-1.1,7.5-0.7,10.5,2.7
				c8.8,10,16.7,20.8,24.3,31.7c0.4-0.8,0.9-1.5,1.3-2.3c-7,0.7-14,1.8-20.8,3.6c-3.7,0.9-7.3,2-10.8,3.2c-3.9,1.3-9.6,5.2-12.7,0.5
				c-1.6-2.5-1.8-6.3-2.7-9.1s-2.2-5.4-3.6-8c-3.4-6.5-7.1-12.9-10.7-19.3C125.1,151.4,122.5,152.9,123.5,154.6L123.5,154.6z"/>
		</g>
	</g>
	<g>
		<g>
			<path d="M162.1,201c2.2,0.8,4.4,0.9,6.6,0.5c1.9-0.3,1.1-3.2-0.8-2.9c-1.7,0.3-3.4,0-5-0.5C161.1,197.5,160.3,200.4,162.1,201
				L162.1,201z"/>
		</g>
	</g>
	<g>
		<g>
			<path d="M180.2,194.5c-0.1-0.2,0,0.1,0,0.2c0,0.1-0.2,0.3-0.1,0.2c0.1-0.1-0.2,0.1-0.2,0.1c-0.1,0-0.5-0.1-0.2,0
				c0.7,0.3,1.7-0.3,1.8-1c0.2-0.9-0.3-1.5-1-1.8c-1.7-0.7-3.8,1.3-3.1,3.1c0.3,0.8,1,1.3,1.8,1
				C179.8,196.2,180.5,195.3,180.2,194.5L180.2,194.5z"/>
		</g>
	</g>
	<g>
		<g>
			<path d="M187.7,191.9c0.4,0,0.9,0,1.3,0c0.8,0,1.5-0.7,1.5-1.5s-0.7-1.5-1.5-1.5c-0.4,0-0.9,0-1.3,0c-0.8,0-1.5,0.7-1.5,1.5
				C186.3,191.3,186.9,191.9,187.7,191.9L187.7,191.9z"/>
		</g>
	</g>
	<g>
		<g>
			<path d="M174.9,206.6c1-0.5,2-0.5,3.1-0.4c0.8,0.1,1.5-0.8,1.5-1.5c0-0.9-0.7-1.4-1.5-1.5c-1.6-0.2-3.2,0.2-4.6,0.8
				c-0.7,0.3-0.9,1.4-0.5,2.1C173.3,206.8,174.2,206.9,174.9,206.6L174.9,206.6z"/>
		</g>
	</g>
	<g>
		<g>
			<path d="M186.6,199.5c0-0.2,0-0.4,0-0.6c0-0.8-0.7-1.5-1.5-1.5s-1.5,0.7-1.5,1.5c0,0.2,0,0.4,0,0.6c0,0.8,0.7,1.5,1.5,1.5
				C186,200.9,186.6,200.3,186.6,199.5L186.6,199.5z"/>
		</g>
	</g>
	<g>
		<g>
			<path d="M190.9,197.1c0.2,0,0.4,0,0.6,0c0.8,0,1.5-0.7,1.5-1.5s-0.7-1.5-1.5-1.5c-0.2,0-0.4,0-0.6,0c-0.8,0-1.5,0.7-1.5,1.5
				C189.5,196.4,190.1,197.1,190.9,197.1L190.9,197.1z"/>
		</g>
	</g>
	<g>
		<g>
			<path d="M203.4,198.8c0-0.4,0-0.9,0-1.3c0-0.8-0.7-1.5-1.5-1.5s-1.5,0.7-1.5,1.5c0,0.4,0,0.9,0,1.3c0,0.8,0.7,1.5,1.5,1.5
				S203.4,199.7,203.4,198.8L203.4,198.8z"/>
		</g>
	</g>
	<g>
		<g>
			<path d="M427.1,132.4c0,9.5-0.1,18.9-0.1,28.4c0,6.7-0.9,14.7,3.5,20.3c3.5,4.5,9.4,5.9,14.9,6.3c5.7,0.5,12.7,1,17.7-2.3
				c5.6-3.6,5.4-10.4,5.3-16.3c-0.2-9.4-0.4-18.8-0.6-28.3c-0.1-4.5-0.2-9.1-0.3-13.6c-0.1-3.6,0.6-8.2-0.8-11.6
				c-2.3-5.7-11-5.1-16-5.6c-4.7-0.5-9.7-1.6-14.5-1.6c-2.4,0-4.6,0.4-6,2.6c-2,3-1.7,8.1-1.9,11.6c-0.3,5.6-0.2,11.1,0.1,16.7
				c0.1,1.9,3.1,1.9,3,0c-0.3-5.4-2.9-26.7,4.7-27.8c3.3-0.5,7.5,0.8,10.8,1.2c3.9,0.4,8.7,0.3,12.5,1.5c6.3,2,5,9,5.1,14.2
				c0.1,3.9,0.2,7.8,0.2,11.7c0.2,8.4,0.3,16.9,0.5,25.3c0.1,3.9,0.7,8.1-0.2,11.9c-1.3,5.5-5.5,7.3-10.6,7.7
				c-5.9,0.5-13.8,0.4-19-2.9c-7.5-4.8-5.6-16.3-5.6-23.9c0-8.5,0.1-16.9,0.1-25.4C430.1,130.4,427.1,130.4,427.1,132.4L427.1,132.4
				z"/>
		</g>
	</g>
	<g>
		<g>
			<path d="M443.4,118.9c1.7,0.2,3.4,0.4,5.2,0.6c0.8,0.1,1.5-0.8,1.5-1.5c0-0.9-0.7-1.4-1.5-1.5c-1.7-0.2-3.4-0.4-5.2-0.6
				c-0.8-0.1-1.5,0.8-1.5,1.5C441.9,118.3,442.6,118.8,443.4,118.9L443.4,118.9z"/>
		</g>
	</g>
	<g>
		<g>
			<path d="M434.5,124.6c-0.4,15.2-0.8,30.4-1.2,45.6c0,0.9,0.7,1.4,1.5,1.5c5.3,0.4,10.5,0.8,15.8,1.2c2.4,0.2,6.9,1.6,9-0.1
				c2.3-1.8,1.1-6.6,1-8.9c-0.2-5.4-0.3-10.8-0.5-16.2c-0.1-5.1-0.3-10.2-0.4-15.3c-0.1-2.1,0.7-6.1-1.4-7.6
				c-2.4-1.7-7.5-0.2-10.4-0.9c-4.1-1-6.9-3.5-11.3-2.6c-1.9,0.4-1.1,3.3,0.8,2.9c3.7-0.8,7.7,2.3,11.3,2.9c1.8,0.3,6.5-0.6,7.7,0.5
				c1,0.9,0.3,8.8,0.3,10.5c0.1,3.8,0.2,7.6,0.3,11.5c0.1,3.5,0.2,7,0.3,10.5c0.1,2.2,1.5,9.1-0.4,10.3c-0.6,0.4-4.9-0.4-5.6-0.4
				c-1.9-0.1-3.7-0.3-5.6-0.4c-3.7-0.3-7.4-0.6-11.1-0.9c0.5,0.5,1,1,1.5,1.5c0.4-15.2,0.8-30.4,1.2-45.6
				C437.5,122.7,434.5,122.7,434.5,124.6L434.5,124.6z"/>
		</g>
	</g>
	<circle class="st1" cx="570.8" cy="452.1" r="59.3"/>
	<circle class="st1" cx="768.5" cy="455.4" r="59.3"/>
	<g>
		<g>
			<path d="M603.2,361c-5,17.8-13.1,34.4-20.7,51.2c-7.8,17.1-15.5,34.3-23.3,51.4c-0.8,1.7,1.8,3.3,2.6,1.5
				c8-17.7,16.1-35.4,24.1-53.2c7.4-16.4,15.3-32.7,20.2-50.1C606.7,359.9,603.8,359.1,603.2,361L603.2,361z"/>
		</g>
	</g>
	<g>
		<g>
			<path d="M597.4,382.1c18.9,14.5,36.9,30.2,53.7,47.1c14.6,14.7,27.5,33.2,46.3,42.9c0.9,0.5,2.4-0.1,2.3-1.3
				c-3.5-30,1.7-60.4,15.2-87.4c0.4-0.8,0.1-2-0.9-2.2c-19.9-3.6-40-6.3-60.1-8.5c-10.3-1.2-20.7-2.2-31-3.2
				c-9.1-0.9-18.8-2.8-27.9-1.5c-1.9,0.3-1.1,3.2,0.8,2.9c9.4-1.4,19.7,0.8,29.1,1.8c9.7,0.9,19.4,1.9,29.1,3
				c19.9,2.2,39.7,4.9,59.3,8.4c-0.3-0.7-0.6-1.5-0.9-2.2c-13.7,27.5-19.2,58.4-15.6,88.9c0.8-0.4,1.5-0.9,2.3-1.3
				c-9.7-5.1-17.5-12.6-24.9-20.5c-7.7-8.3-15.3-16.6-23.3-24.6c-16.2-16.1-33.5-31.1-51.7-45C597.4,378.3,595.9,380.9,597.4,382.1
				L597.4,382.1z"/>
		</g>
	</g>
	<g>
		<g>
			<path d="M708.5,381.4c8.9,17.6,23.3,31.1,35.7,46.2c13.1,15.9,22,34.8,36.4,49.6c0.5-0.8,1-1.7,1.5-2.5
				c-29.8-7.6-61.1-3.4-90.9-10.9c-1.9-0.5-2.7,2.4-0.8,2.9c29.8,7.5,61.1,3.3,90.9,10.9c1.5,0.4,2.5-1.4,1.5-2.5
				c-14-14.4-22.8-32.8-35.4-48.4c-12.4-15.4-27.2-29-36.3-46.8C710.2,378.2,707.6,379.7,708.5,381.4L708.5,381.4z"/>
		</g>
	</g>
	<g>
		<g>
			<path d="M605.9,355.7c-12.4-2.8-38.6,3.6-33.3,21.2c2.5,8.4,11.5,13.3,18.6,17.3c8.9,5.1,18.5,9,28.3,12c1.9,0.6,2.6-2.3,0.8-2.9
				c-13.7-4.1-29.5-10.2-40.1-20.1c-3.2-3-5.8-7-5.2-11.6c0.6-4.3,3.9-7.3,7.4-9.5c6.8-4.3,14.9-5.4,22.6-3.6
				C607,359,607.8,356.2,605.9,355.7L605.9,355.7z"/>
		</g>
	</g>
	<g>
		<g>
			<path d="M716,370.8c-5.6,5.5-2.7,15.2-8.7,20c-1.5,1.2,0.6,3.3,2.1,2.1c6.3-5.1,3.2-14.6,8.7-20
				C719.5,371.6,717.4,369.4,716,370.8L716,370.8z"/>
		</g>
	</g>
	<g>
		<g>
			<path d="M729.6,368.4c-7.4-3.8-15.5-2.7-23.5-2.9c-10.5-0.3-20.8-1.7-31-4.2c0,1,0,1.9,0,2.9c4.5-1.8,9.5-1.5,14.3-1.5
				c4.8-0.1,9.6,0,14.5,0c4.8,0.1,9.6,0.2,14.5,0.4c5.7,0.2,14-0.4,16.3,6.2c0.3-0.6,0.7-1.2,1-1.8c-4.4,1-8.6,1.1-13,0
				c-1.9-0.4-2.7,2.5-0.8,2.9c4.9,1.2,9.7,1.1,14.6,0c0.8-0.2,1.3-1.1,1-1.8c-3.5-10.2-17.4-8.4-25.9-8.6
				c-6.7-0.2-13.5-0.2-20.2-0.2c-5.6,0-11.7-0.5-17.1,1.7c-1.3,0.5-1.6,2.5,0,2.9c8.5,2.1,17.2,3.5,26,4c8.9,0.6,19.5-1.4,27.7,2.8
				C729.8,371.9,731.3,369.3,729.6,368.4L729.6,368.4z"/>
		</g>
	</g>
	<line class="st2" x1="263.3" y1="227.1" x2="313.3" y2="236.4"/>
	<line class="st2" x1="426.9" y1="201.7" x2="397.2" y2="227.1"/>
	<line class="st2" x1="405" y1="280" x2="534" y2="351.1"/>
</g>
<g id="spots">
	<path id="mac" class="st3" d="M86.5,122.5c32.3,75.2,40.6,103.1,40.6,103.1l79.4,10.8c0,0,56.1-20,56.8-22.6
		c0.6-2.6-67.1-38.1-67.1-38.1l-22.1-43.9L86.5,122.5z"/>
	<polygon id="phone" class="st4" points="416.9,103.5 416.9,193.5 480,190.4 476.2,103.5 	"/>
	<path id="bike" class="st5" d="M582.6,341.5L505.3,408l-3.2,74.8l29,24.4l56.1,13l228.4-5.5c0,0,33.5-31.3,25.8-62.6
		s-21.3-62.9-34.2-67.4s-55.1-32.5-71.1-33.7S582.6,341.5,582.6,341.5z"/>
</g>
</svg>
